<svg width="200" height="200" viewBox="0 0 200 200" fill="none" xmlns="http://www.w3.org/2000/svg">
<path d="M48.045 167.633H152.727C163.246 167.633 171.771 159.108 171.771 148.59V51.043C171.771 40.523 163.246 32 152.727 32H48.045C37.526 32 29 40.523 29 51.043V148.59C29 159.107 37.526 167.633 48.045 167.633Z" fill="url(#paint0_linear_2864_207)"/>
<path d="M37.416 64.2151V49.262C37.416 48.096 38.4 47.1121 39.566 47.1121H57.161C58.328 47.1121 59.312 48.096 59.312 49.262V64.2151C59.312 65.3791 58.328 66.365 57.161 66.365H39.566C38.4 66.365 37.416 65.3791 37.416 64.2151ZM63.16 64.2151V49.262C63.16 48.096 64.144 47.1121 65.31 47.1121H161.204C162.37 47.1121 163.355 48.096 163.355 49.262V64.2151C163.355 65.3791 162.37 66.365 161.204 66.365H65.31C64.144 66.365 63.16 65.3791 63.16 64.2151Z" fill="#1934BF"/>
<path d="M48.0471 167.633H152.73C163.249 167.633 171.774 159.108 171.774 148.59V135.422C151.993 131.641 127.244 129.391 100.389 129.391C73.5341 129.391 48.7851 131.641 29.0031 135.422V148.633C29.0271 159.131 37.5431 167.633 48.0471 167.633Z" fill="url(#paint1_linear_2864_207)"/>
<path d="M48.718 108.394C48.718 80.453 71.368 57.802 99.31 57.802C127.252 57.802 149.901 80.452 149.901 108.394C149.901 136.336 127.252 158.984 99.31 158.984C71.368 158.984 48.718 136.336 48.718 108.394Z" fill="url(#paint2_linear_2864_207)"/>
<path d="M99.244 158.985H99.376C118.96 158.961 135.937 147.809 144.323 131.508C130.752 130.143 115.923 129.391 100.388 129.391C84.069 129.391 68.527 130.223 54.406 131.723C62.83 147.904 79.745 158.961 99.244 158.985Z" fill="url(#paint3_linear_2864_207)"/>
<path d="M67.716 77.0171C85.081 59.6551 113.236 59.6551 130.602 77.0191C147.968 94.3861 147.968 122.539 130.602 139.908C113.236 157.273 85.081 157.273 67.716 139.908C50.35 122.539 50.35 94.3831 67.716 77.0171Z" fill="url(#paint4_linear_2864_207)"/>
<path d="M86.597 136.562C86.597 133.931 88.729 131.801 91.359 131.801C93.988 131.801 96.12 133.931 96.12 136.562C96.12 139.191 93.988 141.322 91.359 141.322C88.729 141.322 86.597 139.191 86.597 136.562ZM109.58 136.562C109.58 133.931 111.712 131.801 114.342 131.801C116.971 131.801 119.103 133.931 119.103 136.562C119.103 139.191 116.971 141.322 114.342 141.322C111.712 141.322 109.58 139.191 109.58 136.562ZM95.152 93.646H124.633C125.097 93.591 125.571 93.6031 126.035 93.6731C128.101 93.8721 129.436 95.0989 130.036 96.6279C130.27 97.2259 130.392 97.866 130.404 98.509C130.421 99.515 130.166 100.529 129.637 101.38L121.25 123.259C120.914 124.954 119.768 126.476 117.812 126.974C117.38 127.081 116.907 127.14 116.396 127.14H88.856C88.322 127.14 87.83 127.077 87.38 126.958C85.458 126.446 84.331 124.935 83.999 123.247L72.99 94.2761H70.341C63.728 94.2761 63.728 84.354 70.341 84.354H76.456C76.966 84.342 77.476 84.4031 77.964 84.5491C79.867 85.0671 80.983 86.5721 81.312 88.2461L92.321 117.223H112.941L118.176 103.565H95.15C88.541 103.566 88.541 93.646 95.152 93.646Z" fill="#67F7FE"/>
<defs>
<linearGradient id="paint0_linear_2864_207" x1="26.8141" y1="119.702" x2="173.964" y2="79.9314" gradientUnits="userSpaceOnUse">
<stop stop-color="#00DBDB"/>
<stop offset="0.7216" stop-color="#3647D3"/>
<stop offset="1" stop-color="#3647D3"/>
</linearGradient>
<linearGradient id="paint1_linear_2864_207" x1="27.9506" y1="144.873" x2="172.647" y2="154.664" gradientUnits="userSpaceOnUse">
<stop stop-color="#1B2BBB"/>
<stop offset="1" stop-color="#078DDD"/>
</linearGradient>
<linearGradient id="paint2_linear_2864_207" x1="47.8951" y1="121.952" x2="150.716" y2="94.8339" gradientUnits="userSpaceOnUse">
<stop stop-color="#3647D3"/>
<stop offset="0.749" stop-color="#8A93E5"/>
<stop offset="1" stop-color="#8A93E5"/>
</linearGradient>
<linearGradient id="paint3_linear_2864_207" x1="53.7111" y1="141.072" x2="145.063" y2="146.509" gradientUnits="userSpaceOnUse">
<stop stop-color="#1B2BBB"/>
<stop offset="1" stop-color="#6C77DA"/>
</linearGradient>
<linearGradient id="paint4_linear_2864_207" x1="47.1893" y1="78.4532" x2="151.124" y2="138.475" gradientUnits="userSpaceOnUse">
<stop stop-color="#00FFFF"/>
<stop offset="0.749" stop-color="#1A7AEF"/>
<stop offset="1" stop-color="#1A7AEF"/>
</linearGradient>
</defs>
</svg>
